<?xml version="1.0" encoding="UTF-8"?>
<svg version="1.1" xmlns="http://www.w3.org/2000/svg" width="150" height="150">
<path d="M0 0 C3.96 0 7.92 0 12 0 C12.09803396 2.69593394 12.1026562 5.30862236 12 8 C11.98066406 8.76699219 11.96132813 9.53398437 11.94140625 10.32421875 C11.65291015 12.93843726 11.27483119 14.68641746 10 17 C7.34587826 18.91521425 4.71020704 20.27426018 1.7265625 21.61328125 C-1.11858532 23.06031202 -2.79937848 24.72667072 -5 27 C-5.66 27 -6.32 27 -7 27 C-7.27070312 27.57492188 -7.54140625 28.14984375 -7.8203125 28.7421875 C-9.01465189 31.02804236 -10.37989305 33.02565294 -11.875 35.125 C-19.8741901 46.97710074 -21.98062566 60.61020366 -19.31640625 74.5859375 C-17.15802634 82.12683328 -14.02342236 90.06059342 -8.31640625 95.6484375 C-7 97 -7 97 -7 99 C-6.46375 99.226875 -5.9275 99.45375 -5.375 99.6875 C1.11798875 103.27573062 1.11798875 103.27573062 3 106 C3.97321926 110.44476356 5.09836756 115.80326488 3 120 C-0.63 120 -4.26 120 -8 120 C-8 118.68 -8 117.36 -8 116 C-9.32 116 -10.64 116 -12 116 C-12 114.68 -12 113.36 -12 112 C-13.32 112 -14.64 112 -16 112 C-16 110.68 -16 109.36 -16 108 C-17.32 108 -18.64 108 -20 108 C-20 106.68 -20 105.36 -20 104 C-21.32 104 -22.64 104 -24 104 C-24 101.36 -24 98.72 -24 96 C-25.32 96 -26.64 96 -28 96 C-28 94.68 -28 93.36 -28 92 C-29.32 92 -30.64 92 -32 92 C-32 88.04 -32 84.08 -32 80 C-33.32 80 -34.64 80 -36 80 C-36 68.12 -36 56.24 -36 44 C-34.68 44 -33.36 44 -32 44 C-32 40.04 -32 36.08 -32 32 C-30.68 32 -29.36 32 -28 32 C-28 30.68 -28 29.36 -28 28 C-26.68 28 -25.36 28 -24 28 C-24 25.36 -24 22.72 -24 20 C-22.68 20 -21.36 20 -20 20 C-20 18.68 -20 17.36 -20 16 C-18.68 16 -17.36 16 -16 16 C-16 14.68 -16 13.36 -16 12 C-14.68 12 -13.36 12 -12 12 C-12 10.68 -12 9.36 -12 8 C-10.68 8 -9.36 8 -8 8 C-8 6.68 -8 5.36 -8 4 C-5.36 4 -2.72 4 0 4 C0 2.68 0 1.36 0 0 Z " fill="#1D1B1B" transform="translate(47,15)"/>
<path d="M0 0 C3.96 0 7.92 0 12 0 C12 1.32 12 2.64 12 4 C14.64 4 17.28 4 20 4 C20 5.32 20 6.64 20 8 C21.32 8 22.64 8 24 8 C24 9.32 24 10.64 24 12 C25.32 12 26.64 12 28 12 C28 13.32 28 14.64 28 16 C29.32 16 30.64 16 32 16 C32 17.32 32 18.64 32 20 C33.32 20 34.64 20 36 20 C36 22.64 36 25.28 36 28 C37.32 28 38.64 28 40 28 C40 29.32 40 30.64 40 32 C41.32 32 42.64 32 44 32 C44 35.96 44 39.92 44 44 C45.32 44 46.64 44 48 44 C48 55.88 48 67.76 48 80 C46.68 80 45.36 80 44 80 C44 83.96 44 87.92 44 92 C42.68 92 41.36 92 40 92 C40 93.32 40 94.64 40 96 C38.68 96 37.36 96 36 96 C36 98.64 36 101.28 36 104 C34.68 104 33.36 104 32 104 C32 105.32 32 106.64 32 108 C30.68 108 29.36 108 28 108 C28 109.32 28 110.64 28 112 C26.68 112 25.36 112 24 112 C24 113.32 24 114.64 24 116 C22.68 116 21.36 116 20 116 C20 117.32 20 118.64 20 120 C16.04 120 12.08 120 8 120 C7.65404062 114.46464988 8.16845748 109.8667137 11 105 C13.12215765 102.68625868 15.34767104 100.68726469 18 99 C18.66 99 19.32 99 20 99 C20.27070312 98.42507812 20.54140625 97.85015625 20.8203125 97.2578125 C22.01465189 94.97195764 23.37989305 92.97434706 24.875 90.875 C32.8741901 79.02289926 34.98062566 65.38979634 32.31640625 51.4140625 C30.15802634 43.87316672 27.02342236 35.93940658 21.31640625 30.3515625 C20 29 20 29 20 27 C19.43023437 26.73058594 18.86046875 26.46117188 18.2734375 26.18359375 C15.92100241 24.95887239 13.80766543 23.56739038 11.625 22.0625 C8.92332389 20.22125869 6.48291322 18.75992399 3.5 17.375 C1 16 1 16 0.34765625 14.3046875 C-0.36595235 9.57402378 -0.05185613 4.77076405 0 0 Z " fill="#1D1B1B" transform="translate(91,15)"/>
<path d="M0 0 C1.18851563 0.00902344 2.37703125 0.01804687 3.6015625 0.02734375 C4.51679687 0.03894531 5.43203125 0.05054687 6.375 0.0625 C6.95225602 10.88925742 6.66972055 19.24835727 1.375 29.0625 C0.385 29.0625 -0.605 29.0625 -1.625 29.0625 C-1.625 29.7225 -1.625 30.3825 -1.625 31.0625 C-2.615 31.0625 -3.605 31.0625 -4.625 31.0625 C-4.625 31.7225 -4.625 32.3825 -4.625 33.0625 C-8.585 33.0625 -12.545 33.0625 -16.625 33.0625 C-16.625 30.4225 -16.625 27.7825 -16.625 25.0625 C-15.305 25.0625 -13.985 25.0625 -12.625 25.0625 C-12.625 22.4225 -12.625 19.7825 -12.625 17.0625 C-11.305 17.0625 -9.985 17.0625 -8.625 17.0625 C-8.625 11.7825 -8.625 6.5025 -8.625 1.0625 C-5.74084117 -0.37957941 -3.20778472 -0.03144887 0 0 Z " fill="#1D1B1B" transform="translate(63.625,73.9375)"/>
<path d="M0 0 C1.09570312 0.00902344 2.19140625 0.01804687 3.3203125 0.02734375 C4.16335937 0.03894531 5.00640625 0.05054687 5.875 0.0625 C6.32843137 23.41421569 6.32843137 23.41421569 1.875 31.0625 C-3.67652074 33.98435302 -10.02524463 33.24016278 -16.125 33.0625 C-16.125 30.4225 -16.125 27.7825 -16.125 25.0625 C-14.805 25.0625 -13.485 25.0625 -12.125 25.0625 C-12.125 22.4225 -12.125 19.7825 -12.125 17.0625 C-10.805 17.0625 -9.485 17.0625 -8.125 17.0625 C-8.125 11.7825 -8.125 6.5025 -8.125 1.0625 C-5.36047967 -0.31976016 -3.0788637 -0.03275387 0 0 Z " fill="#1D1B1B" transform="translate(95.125,73.9375)"/>
<path d="M0 0 C1.16402344 -0.02126953 1.16402344 -0.02126953 2.3515625 -0.04296875 C4.375 0.1875 4.375 0.1875 6.375 2.1875 C6.60546875 5.41015625 6.60546875 5.41015625 6.5625 9.25 C6.55605469 10.51972656 6.54960938 11.78945313 6.54296875 13.09765625 C6.375 16.1875 6.375 16.1875 5.375 17.1875 C3.02186445 17.26021741 0.66666332 17.27120868 -1.6875 17.25 C-2.97785156 17.24097656 -4.26820312 17.23195313 -5.59765625 17.22265625 C-6.59667969 17.21105469 -7.59570312 17.19945313 -8.625 17.1875 C-9.99038938 14.45672124 -9.75731826 12.23189633 -9.75 9.1875 C-9.75257812 8.115 -9.75515625 7.0425 -9.7578125 5.9375 C-9.625 3.1875 -9.625 3.1875 -8.625 1.1875 C-5.75612371 0.19539961 -3.0199372 0.02525031 0 0 Z " fill="#1D1B1B" transform="translate(64.625,47.8125)"/>
<path d="M0 0 C0.87785156 0.01546875 1.75570312 0.0309375 2.66015625 0.046875 C4.9375 0.25 4.9375 0.25 6.9375 1.25 C6.96435095 3.72923801 6.98426547 6.2081884 7 8.6875 C7.00837891 9.39455078 7.01675781 10.10160156 7.02539062 10.83007812 C7.03403588 12.63693559 6.98970011 14.44387603 6.9375 16.25 C5.12630181 18.06119819 2.43968608 17.46518878 0 17.5 C-1.08152344 17.52578125 -2.16304688 17.5515625 -3.27734375 17.578125 C-4.65599609 17.41570312 -4.65599609 17.41570312 -6.0625 17.25 C-8.28514871 13.91602694 -8.35925463 12.65485109 -8.375 8.75 C-8.39175781 7.7909375 -8.40851563 6.831875 -8.42578125 5.84375 C-8.0625 3.25 -8.0625 3.25 -6.859375 1.421875 C-4.45991616 -0.14298946 -2.84406407 -0.08377214 0 0 Z " fill="#1D1B1B" transform="translate(94.0625,47.75)"/>
</svg>
